General

Format                           : MPEG-4
Format profile                   : Base Media
Codec ID                         : isom
File size                        : 124 MiB
Duration                         : 5mn 27s
Overall bit rate                 : 3 192 Kbps
Encoded date                     : UTC 2012-01-22 19:52:28
Tagged date                      : UTC 2012-01-22 19:52:28

Video
ID                               : 1
Format                           : AVC
Format/Info                      : Advanced Video Codec
Format profile                   : High@L3.0
Format settings, CABAC           : Yes
Format settings, ReFrames        : 2 frames
Codec ID                         : avc1
Codec ID/Info                    : Advanced Video Coding
Duration                         : 5mn 27s
Bit rate mode                    : Variable
Bit rate                         : 3 117 Kbps
Maximum bit rate                 : 5 171 Kbps
Width                            : 720 pixels
Height                           : 480 pixels
Display aspect ratio             : 4:3
Original display aspect ratio    : 4:3
Frame rate mode                  : Constant
Frame rate                       : 29.970 fps
Standard                         : NTSC
Color space                      : YUV
Chroma subsampling               : 4:2:0
Bit depth                        : 8 bits
Scan type                        : Progressive
Bits/(Pixel*Frame)               : 0.301
Stream size                      : 121 MiB (98%)


Audio
ID                               : 2
Format                           : AAC
Format/Info                      : Advanced Audio Codec
Format profile                   : LC
Codec ID                         : 40
Duration                         : 5mn 27s
Bit rate mode                    : Variable
Bit rate                         : 69.4 Kbps
Maximum bit rate                 : 77.7 Kbps
Channel(s)                       : 2 channels
Channel positions                : Front: L R
Sampling rate                    : 48.0 KHz
Compression mode                 : Lossy
Stream size                      : 2.71 MiB (2%)

